<svg width="601" height="781" viewBox="0 0 601 781" fill="none" xmlns="http://www.w3.org/2000/svg">
<path d="M217.678 641.93C227.578 632.946 236.572 625.537 244.848 617.104C272.622 588.534 300.888 560.436 327.415 530.645C362.428 490.376 394.119 447.098 422.151 401.271C454.303 349.74 482.783 295.818 507.364 239.938C536.322 174.096 560.327 106.006 579.162 36.2822C581.618 27.2974 583.81 18.2732 586.153 9.28836C586.4 7.39165 587.045 5.57511 588.042 3.9684C589.705 2.15567 592.237 -0.287567 594.126 0.0276902C596.016 0.342947 598.396 3.10145 599.379 5.30824C600.227 7.93073 600.536 10.7102 600.286 13.4655C600.286 228.418 600.286 443.384 600.286 658.363C600.286 660.255 600.286 662.304 600.021 665.062C597.112 664.038 594.731 663.289 592.464 662.343C576.744 655.92 561.364 648.472 545.304 643.231C514.496 633.281 481.379 634.391 451.248 646.383C436.514 652.516 421.493 657.869 406.242 662.422C379.539 669.101 351.518 667.149 325.904 656.826C311.469 651.349 296.996 646.226 282.258 642.285C262.983 637.434 242.917 637.084 223.497 641.26C222.137 641.457 220.776 641.576 217.678 641.93Z" fill="#F3FBFF"/>
<path d="M299.793 786.601C202.954 786.601 106.089 786.601 9.1998 786.601C6.40345 786.601 2.17114 785.459 1.07528 783.41C0.505997 782.517 0.150384 781.495 0.0383056 780.43C-0.0737727 779.364 0.0609566 778.286 0.431178 777.286C0.8014 776.286 1.3963 775.394 2.16593 774.683C2.93555 773.973 3.85743 773.465 4.85412 773.203C19.9695 766.661 34.5936 759.726 49.5956 753.224C51.8001 752.359 54.2309 752.359 56.4354 753.224C95.3952 770.72 134.506 770.72 174.109 755.509C190.263 749.142 206.738 743.695 223.46 739.195C247.72 733.008 271.792 735.687 295.523 743.687C315.075 750.864 335.011 756.85 355.229 761.617C379.98 766.74 404.618 762.642 428.387 753.539C447.81 746.052 466.742 737.067 487.715 734.781C509.479 732.18 531.524 735.128 551.955 743.372C566.542 749.283 580.863 755.864 595.45 761.854C597.052 762.335 598.44 763.388 599.373 764.828C600.306 766.269 600.723 768.006 600.551 769.735C600.551 786.404 600.551 786.404 585.058 786.404L299.793 786.601Z" fill="#F3FBFF"/>
<path d="M600.172 748.251C588.268 743.168 577.499 738.912 567.258 734.104C548.075 724.862 527.269 719.851 506.143 719.383C485.016 718.915 464.025 723.001 444.483 731.385C428.648 737.975 412.302 743.143 395.623 746.833C374.12 750.933 351.961 749.044 331.382 741.355C314.038 735.326 296.768 728.666 279.045 724.331C254.184 718.646 228.299 720.256 204.262 728.981C184.348 735.72 164.698 743.522 144.443 748.882C121.088 754.565 96.6514 753.031 74.1187 744.468C72.8058 743.867 71.5421 743.155 70.3398 742.34C81.1473 736.35 91.2746 730.518 101.515 725.159C102.856 724.645 104.303 724.509 105.71 724.765C131.633 727.011 156.157 721.1 180.304 711.839C194.706 706.064 209.449 701.259 224.441 697.456C248.692 692.076 273.908 693.948 297.184 702.854C313.947 709.338 331.041 714.85 348.387 719.366C376.086 725.789 403.294 721.73 429.935 711.484C446.594 704.744 463.645 699.111 480.987 694.618C504.111 689.705 528.114 692.064 549.951 701.396C565.368 707.465 580.484 714.282 595.675 721.1C597.451 721.888 599.869 723.977 599.983 725.592C600.436 732.528 600.172 739.7 600.172 748.251Z" fill="#F3FBFF"/>
<path d="M128.233 708.921C146.145 696.153 163.225 681.73 182.271 671.13C197.042 663.586 212.769 658.278 228.977 655.367C256.45 649.456 283.09 655.367 308.938 665.849C331.611 675.267 355.191 681.848 380.169 680.745C397.875 679.953 415.337 676.146 431.864 669.474C450.758 662.066 469.199 653.712 489.642 651.899C510.578 649.74 531.709 652.709 551.351 660.568C566.126 666.519 580.674 673.139 595.412 679.287C596.979 679.698 598.347 680.697 599.253 682.092C600.159 683.488 600.54 685.183 600.324 686.853C600.06 693.119 600.324 699.384 600.324 706.872C592.767 703.759 586.872 700.882 580.599 698.636C563.556 692.449 546.589 685.08 529.244 680.824C504.02 675.224 477.782 677.317 453.668 686.853C439.497 692.094 425.553 698.202 411.118 702.616C383.079 711.049 355.304 708.724 327.756 698.872C310.188 692.239 292.257 686.699 274.059 682.282C251.147 677.632 227.461 679.427 205.435 687.483C186.541 693.867 167.647 700.764 148.753 706.911C142.137 708.617 135.422 709.868 128.649 710.655L128.233 708.921Z" fill="#F3FBFF"/>
</svg>
