<svg width="400" height="202" viewBox="0 0 400 202" fill="none" xmlns="http://www.w3.org/2000/svg">
<path d="M57.6001 162.897C60.2201 160.617 62.6001 158.737 64.7901 156.597C72.1401 149.347 79.6201 142.217 86.6401 134.657C95.9055 124.438 104.292 113.456 111.71 101.827C120.218 88.7505 127.755 75.0671 134.26 60.887C141.923 44.1789 148.276 26.9001 153.26 9.20703C153.91 6.92703 154.49 4.63703 155.11 2.35703C155.175 1.87571 155.346 1.41475 155.61 1.00703C156.05 0.547027 156.72 -0.0729733 157.22 0.0070267C157.72 0.0870267 158.35 0.787027 158.61 1.34703C158.835 2.01251 158.916 2.71783 158.85 3.41703C158.85 57.9637 158.85 112.514 158.85 167.067C158.85 167.547 158.85 168.067 158.78 168.767C158.01 168.507 157.38 168.317 156.78 168.077C152.62 166.447 148.55 164.557 144.3 163.227C136.148 160.702 127.384 160.984 119.41 164.027C115.511 165.583 111.536 166.942 107.5 168.097C100.434 169.792 93.0185 169.297 86.2401 166.677C82.4201 165.287 78.5901 163.987 74.6901 162.987C69.5892 161.756 64.2793 161.667 59.1401 162.727C58.7801 162.777 58.4201 162.807 57.6001 162.897Z" fill="#FF6B17"/>
<path d="M253.68 201.228C243.4 201.078 235.24 198.528 228.95 191.498C223.27 185.148 221.37 177.548 221.76 169.248C221.878 164.121 223.34 159.114 226 154.728C228.142 151.229 231.034 148.248 234.466 146.001C237.898 143.753 241.786 142.294 245.85 141.728C252.85 140.568 259.92 140.898 266.55 143.928C276.5 148.468 281.91 156.298 283.1 167.158C283.878 172.891 283.101 178.728 280.85 184.058C276.74 193.328 269.42 198.638 259.57 200.558C257.28 200.988 254.9 201.088 253.68 201.228ZM269.91 171.228C270.2 155.988 255.6 149.558 244.45 154.938C237.22 158.418 234.23 165.698 235.33 174.118C237.17 188.228 250.58 191.798 259.98 187.738C267.05 184.648 269.79 178.628 269.91 171.208V171.228Z" fill="#0A2C75"/>
<path d="M346.44 100.677V74.4967C346.44 72.1767 346.44 72.1667 348.84 72.1767C355.04 72.1767 361.23 72.0867 367.43 72.1767C374.43 72.3067 381.21 73.6067 387.28 77.4167C394.1 81.7367 397.83 87.9867 398.85 95.9867C399.67 102.447 399.13 108.697 395.85 114.447C393.731 118.321 390.711 121.63 387.046 124.094C383.381 126.558 379.178 128.106 374.79 128.607C368.32 129.497 361.69 129.187 355.13 129.367C352.82 129.427 350.5 129.287 348.19 129.367C346.71 129.447 346.39 128.877 346.4 127.507C346.47 118.557 346.44 109.617 346.44 100.677ZM359.44 117.677C364.09 117.357 368.59 117.427 372.94 116.677C381.12 115.237 385.51 109.537 385.8 100.767C386.06 93.2367 381.51 87.2867 373.93 85.1367C369.23 83.7967 364.45 84.3067 359.68 84.3067C359.6 84.3067 359.52 84.4267 359.44 84.4967V117.677Z" fill="#0A2C75"/>
<path d="M323.44 176.21C327.95 183.71 332.64 191.53 337.44 199.59C336.53 199.59 335.91 199.69 335.28 199.69C331.35 199.69 327.42 199.69 323.49 199.69C323.018 199.741 322.542 199.635 322.136 199.39C321.729 199.144 321.415 198.772 321.24 198.33C317.82 191.68 314.31 185.08 310.9 178.42C310.732 177.976 310.417 177.604 310.008 177.363C309.599 177.123 309.119 177.03 308.65 177.1C307.31 177.18 305.96 177.1 304.41 177.1V199.52H291.41V197.8C291.41 180.04 291.41 162.27 291.41 144.5C291.41 142.95 291.82 142.5 293.41 142.5C300.89 142.59 308.41 142.5 315.86 142.58C319.968 142.517 324.022 143.516 327.63 145.48C333.34 148.76 335.31 153.99 335.21 160.31C335.14 164.86 333.96 169.01 330.39 171.98C328.36 173.71 325.85 174.79 323.44 176.21ZM304.5 153.46V166.11C307.44 166.11 310.29 166.11 313.12 166.11C314.249 166.096 315.374 165.976 316.48 165.75C318.7 165.28 320.72 164.5 321.48 162.02C322.68 158.19 320.66 154.59 316.53 154.07C312.63 153.55 308.63 153.64 304.5 153.46Z" fill="#0A2C75"/>
<path d="M326.49 105.817L340.6 129.327H333.6C331.29 129.327 328.97 129.277 326.66 129.327C326.186 129.391 325.704 129.294 325.293 129.051C324.881 128.808 324.563 128.433 324.39 127.987C320.99 121.387 317.49 114.837 314.12 108.217C313.938 107.698 313.578 107.26 313.104 106.982C312.629 106.703 312.072 106.603 311.53 106.697C310.25 106.797 308.96 106.697 307.44 106.697V108.697C307.44 114.937 307.44 121.187 307.44 127.437C307.44 128.807 307.12 129.347 305.64 129.307C302.05 129.207 298.44 129.307 294.64 129.307C294.59 128.607 294.51 128.037 294.51 127.477C294.51 109.647 294.51 91.8174 294.51 73.9974C294.51 72.4774 294.97 72.1074 296.43 72.1174C303.86 72.1974 311.29 72.1174 318.73 72.1974C322.892 72.1308 327.002 73.14 330.66 75.1274C336.44 78.4774 338.38 83.7974 338.21 90.1274C338.1 94.5474 336.98 98.6474 333.46 101.527C331.46 103.247 329 104.347 326.49 105.817ZM307.49 95.3774C311.49 95.3774 315.39 95.5374 319.24 95.3774C322.29 95.2174 324.13 93.5574 324.67 91.1474C325.46 87.6974 323.9 84.8874 320.48 83.8974C316.23 82.6674 311.88 83.4974 307.48 83.2574L307.49 95.3774Z" fill="#0A2C75"/>
<path d="M257 34.4888H233.24V36.4088C233.24 43.2488 233.18 50.0888 233.24 56.9188C233.24 58.6088 232.73 59.0188 231.13 58.9188C227.59 58.8088 224.05 58.9188 220.38 58.9188V1.76881H223.1C225.95 1.76881 228.81 1.76881 231.66 1.76881C232.87 1.76881 233.23 2.18881 233.22 3.36881C233.22 9.18881 233.22 14.9988 233.22 20.8188V22.8788C233.8 22.9288 234.22 23.0088 234.73 23.0088C241.62 23.0088 248.51 23.0088 255.4 23.0088C256.7 23.0088 257.05 22.6088 257.03 21.3488C256.98 15.4288 257.03 9.49881 256.98 3.57881C256.98 2.17881 257.34 1.68881 258.79 1.72881C261.97 1.82881 265.15 1.79881 268.32 1.72881C269.48 1.72881 269.94 2.01881 269.94 3.25881C269.94 21.4121 269.94 39.5588 269.94 57.6988C269.94 58.0188 269.88 58.3288 269.82 58.9088H265C262.9 58.9088 260.8 58.8288 258.71 58.9088C257.31 58.9788 256.98 58.4288 256.99 57.1388C256.99 50.2488 256.99 43.3588 256.99 36.4588L257 34.4888Z" fill="#0A2C75"/>
<path d="M223.76 129.317C219.76 129.317 215.85 129.317 211.93 129.257C211.61 129.257 211.05 128.417 211.04 127.957C210.95 125.477 211.04 122.957 211.04 120.527V104.987H187.17V106.787C187.17 113.727 187.17 120.677 187.17 127.627C187.17 128.927 186.84 129.427 185.46 129.397C182.23 129.307 178.99 129.327 175.76 129.397C174.66 129.397 174.26 129.077 174.26 127.937C174.26 109.837 174.26 91.7402 174.26 73.6468C174.26 72.4968 174.69 72.1868 175.78 72.2068C179.07 72.2068 182.35 72.2768 185.64 72.2068C186.89 72.2068 187.18 72.6568 187.17 73.8068C187.17 79.8068 187.17 85.8768 187.17 91.9068C187.17 92.9068 187.35 93.4668 188.56 93.4568C195.62 93.4568 202.68 93.4568 209.73 93.4568C210.159 93.4272 210.586 93.3738 211.01 93.2968V91.2668C211.01 85.4468 211.01 79.6368 211.01 73.8168C211.01 72.5868 211.32 72.1068 212.65 72.1468C215.98 72.2368 219.32 72.1468 222.65 72.1468C223.65 72.1468 223.96 72.4768 223.96 73.4568C223.96 91.8168 223.96 110.18 223.96 128.547C223.908 128.807 223.841 129.064 223.76 129.317Z" fill="#0A2C75"/>
<path d="M294.5 13.7573C294.5 17.0073 294.45 20.0673 294.57 23.1173C294.57 23.4173 295.57 23.9273 296.09 23.9273C302.93 23.9873 309.77 23.9273 316.6 23.9273C319.36 23.9273 319.15 23.5073 319.16 26.5473C319.16 29.0873 319.09 31.6173 319.16 34.1473C319.21 35.5273 318.68 35.8673 317.38 35.8573C310.38 35.8073 303.49 35.8573 296.54 35.8573H294.54V46.9873H319.74C321.88 46.9873 321.88 46.9873 321.88 49.2073V58.8473H281.67C281.67 58.1873 281.55 57.5573 281.55 56.9273C281.55 39.2073 281.55 21.4873 281.55 3.77734C281.55 2.21734 282.01 1.77734 283.55 1.77734C295.236 1.83734 306.923 1.83734 318.61 1.77734C320.25 1.77734 320.77 2.22734 320.69 3.86734C320.56 6.55734 320.57 9.25734 320.69 11.9473C320.76 13.4773 320.18 13.8473 318.69 13.8373C311.31 13.7773 303.94 13.8373 296.56 13.8373L294.5 13.7573Z" fill="#0A2C75"/>
<path d="M289.3 129.328H284.49C281.69 129.328 278.9 129.328 276.1 129.328C275.68 129.384 275.254 129.284 274.903 129.046C274.553 128.808 274.302 128.449 274.2 128.038C272.99 124.878 271.64 121.768 270.4 118.618C270.322 118.23 270.103 117.885 269.785 117.65C269.467 117.415 269.073 117.308 268.68 117.348C262.22 117.398 255.76 117.348 249.3 117.348C248.934 117.301 248.564 117.391 248.261 117.602C247.958 117.813 247.744 118.128 247.66 118.488C246.44 121.708 245.173 124.904 243.86 128.078C243.66 128.568 243.05 129.228 242.61 129.238C238.27 129.328 233.91 129.288 229.27 129.288C229.53 128.538 229.69 127.998 229.91 127.488C237.663 109.528 245.417 91.5642 253.17 73.5975C253.294 73.111 253.596 72.6887 254.016 72.4145C254.437 72.1403 254.945 72.0343 255.44 72.1175C257.86 72.2075 260.28 72.2175 262.7 72.1175C263.244 72.0328 263.8 72.1497 264.264 72.4461C264.728 72.7426 265.068 73.1982 265.22 73.7275C270.7 86.4675 276.217 99.1942 281.77 111.908C283.97 116.988 286.18 122.061 288.4 127.128C288.66 127.738 288.89 128.328 289.3 129.328ZM265.43 106.328L259 90.0475L258.61 90.1075C256.51 95.4675 254.4 100.828 252.25 106.318L265.43 106.328Z" fill="#0A2C75"/>
<path d="M187.17 199.579H174.41C174.41 198.969 174.31 198.399 174.31 197.839C174.31 180.069 174.31 162.299 174.31 144.539C174.31 142.989 174.72 142.539 176.31 142.539C183.52 142.629 190.74 142.539 197.95 142.619C201.563 142.619 205.138 143.365 208.45 144.809C210.55 145.667 212.406 147.028 213.857 148.771C215.308 150.515 216.308 152.588 216.77 154.809C217.528 158.125 217.572 161.565 216.9 164.899C215.56 171.669 210.51 176.209 202.81 177.079C198.28 177.589 193.68 177.529 189.11 177.589C187.69 177.589 187.18 177.909 187.2 179.449C187.3 185.449 187.2 191.509 187.2 197.539L187.17 199.579ZM187.17 153.379C187.17 157.799 187.17 161.819 187.17 165.829C187.17 166.129 187.84 166.659 188.17 166.659C191.4 166.659 194.63 166.659 197.83 166.379C201.5 166.029 203.56 163.809 203.76 160.519C203.96 157.229 202.41 154.909 198.62 154.249C194.824 153.768 191.006 153.477 187.18 153.379H187.17Z" fill="#0A2C75"/>
<path d="M79.3302 199.609C53.7035 199.609 28.0702 199.609 2.43016 199.609C1.69016 199.609 0.570158 199.319 0.280158 198.799C0.129508 198.573 0.0354017 198.314 0.00574232 198.043C-0.0239171 197.773 0.0117365 197.499 0.109709 197.246C0.207681 196.992 0.365111 196.765 0.568778 196.585C0.772444 196.405 1.0164 196.276 1.28016 196.209C5.28016 194.549 9.15016 192.789 13.1202 191.139C13.7035 190.92 14.3468 190.92 14.9302 191.139C25.2402 195.579 35.5902 195.579 46.0702 191.719C50.3452 190.104 54.705 188.722 59.1302 187.579C65.5502 186.009 71.9202 186.689 78.2002 188.719C83.3744 190.541 88.6499 192.06 94.0002 193.269C100.55 194.569 107.07 193.529 113.36 191.219C118.5 189.319 123.51 187.039 129.06 186.459C134.82 185.799 140.653 186.547 146.06 188.639C149.92 190.139 153.71 191.809 157.57 193.329C157.994 193.451 158.362 193.719 158.608 194.084C158.855 194.45 158.966 194.891 158.92 195.329C158.92 199.559 158.92 199.559 154.82 199.559L79.3302 199.609Z" fill="#0A2C75"/>
<path d="M185.23 36.127C185.23 29.127 185.23 22.017 185.23 14.977C185.23 13.527 184.78 13.137 183.38 13.167C179.13 13.237 174.88 13.167 170.63 13.167C169.42 13.167 168.87 12.887 168.92 11.557C169 8.81703 168.98 6.06703 168.92 3.32703C168.92 2.17703 169.22 1.70703 170.46 1.70703C184.56 1.70703 198.663 1.70703 212.77 1.70703C213.93 1.70703 214.43 2.02703 214.4 3.25703C214.34 6.05703 214.33 8.85703 214.4 11.657C214.4 12.907 213.93 13.187 212.78 13.167C208.42 13.117 204.06 13.167 199.7 13.167C198.4 13.167 198.08 13.577 198.08 14.837C198.08 28.837 198.08 42.927 198.14 56.977C198.14 58.517 197.74 58.977 196.14 58.977C193.07 58.857 190 58.867 186.93 58.977C185.46 59.037 185.13 58.497 185.14 57.137C185.26 50.117 185.23 43.117 185.23 36.127Z" fill="#0A2C75"/>
<path d="M336.71 142.688H382V153.988H365.9V199.688H361.41C359.2 199.688 356.99 199.607 354.79 199.688C353.29 199.768 352.88 199.238 352.89 197.768C352.94 183.928 352.89 170.087 352.89 156.247V153.988H348.41C344.96 153.988 341.51 153.988 338.07 153.988C337.6 153.988 336.75 153.468 336.74 153.158C336.67 149.698 336.71 146.257 336.71 142.688Z" fill="#0A2C75"/>
<path d="M158.82 189.877C155.67 188.587 152.82 187.507 150.11 186.287C145.033 183.942 139.528 182.671 133.937 182.552C128.346 182.433 122.791 183.47 117.62 185.597C113.429 187.27 109.104 188.581 104.69 189.517C98.9996 190.558 93.1355 190.079 87.6899 188.127C83.0999 186.597 78.5299 184.907 73.8399 183.807C67.2609 182.365 60.4108 182.773 54.0499 184.987C48.7799 186.697 43.5799 188.677 38.2199 190.037C32.0394 191.48 25.5727 191.09 19.6099 188.917C19.2624 188.765 18.928 188.584 18.6099 188.377C21.4699 186.857 24.1499 185.377 26.8599 184.017C27.2146 183.887 27.5975 183.853 27.9699 183.917C34.8299 184.487 41.3199 182.987 47.7099 180.637C51.521 179.172 55.4224 177.953 59.3899 176.987C65.8075 175.622 72.4802 176.097 78.6399 178.357C83.0759 180.003 87.5994 181.402 92.1899 182.547C99.5199 184.177 106.72 183.147 113.77 180.547C118.178 178.837 122.691 177.408 127.28 176.267C133.399 175.021 139.751 175.619 145.53 177.987C149.61 179.527 153.61 181.257 157.63 182.987C158.1 183.187 158.74 183.717 158.77 184.127C158.89 185.887 158.82 187.707 158.82 189.877Z" fill="#0A2C75"/>
<path d="M33.9302 179.897C38.6702 176.657 43.1902 172.997 48.2302 170.307C52.139 168.393 56.3009 167.046 60.5902 166.307C67.8602 164.807 74.9102 166.307 81.7502 168.967C87.7502 171.357 93.9902 173.027 100.6 172.747C105.286 172.547 109.907 171.58 114.28 169.887C119.28 168.007 124.16 165.887 129.57 165.427C135.111 164.88 140.702 165.633 145.9 167.627C149.81 169.137 153.66 170.817 157.56 172.377C157.975 172.482 158.337 172.735 158.577 173.089C158.816 173.444 158.917 173.874 158.86 174.297C158.79 175.887 158.86 177.477 158.86 179.377C156.86 178.587 155.3 177.857 153.64 177.287C149.13 175.717 144.64 173.847 140.05 172.767C133.375 171.347 126.432 171.878 120.05 174.297C116.3 175.627 112.61 177.177 108.79 178.297C101.37 180.437 94.0202 179.847 86.7302 177.347C82.0809 175.664 77.3359 174.259 72.5202 173.137C66.457 171.958 60.189 172.413 54.3602 174.457C49.3602 176.077 44.3602 177.827 39.3602 179.387C37.6096 179.82 35.8324 180.138 34.0402 180.337L33.9302 179.897Z" fill="#0A2C75"/>
</svg>
